<svg width="15" height="15" viewBox="0 0 15 15" fill="none" xmlns="http://www.w3.org/2000/svg">
<path d="M12.0779 5.91761C12.0779 5.91761 11.7386 10.127 11.5417 11.9001C11.4479 12.747 10.9248 13.2432 10.0679 13.2589C8.43731 13.2882 6.80481 13.2901 5.17481 13.2557C4.35044 13.2389 3.83606 12.7364 3.74419 11.9045C3.54606 10.1157 3.20856 5.91761 3.20856 5.91761M12.9425 3.89982H2.34375M10.9003 3.8998C10.4096 3.8998 9.98713 3.55293 9.89088 3.0723L9.739 2.3123C9.64525 1.96168 9.32775 1.71918 8.96588 1.71918H6.32025C5.95838 1.71918 5.64088 1.96168 5.54713 2.3123L5.39525 3.0723C5.299 3.55293 4.8765 3.8998 4.38588 3.8998" stroke="#8F959E" stroke-width="1.3" stroke-linecap="round" stroke-linejoin="round"/>
</svg>
