<svg width="20" height="20" viewBox="0 0 20 20" fill="none" xmlns="http://www.w3.org/2000/svg">
<path fill-rule="evenodd" clip-rule="evenodd" d="M9.801 17.3782C7.99216 16.2649 6.30942 14.9547 4.7829 13.471C3.7097 12.4024 2.89267 11.0998 2.39441 9.66284C1.49778 6.87526 2.5451 3.68403 5.4761 2.7396C7.0165 2.24369 8.69883 2.52713 9.99691 3.50124C11.2954 2.52832 12.9772 2.24499 14.5177 2.7396C17.4487 3.68403 18.5036 6.87526 17.6069 9.66284C17.1087 11.0998 16.2917 12.4024 15.2184 13.471C13.6919 14.9547 12.0092 16.2649 10.2003 17.3782L10.0044 17.5L9.801 17.3782Z" stroke="#8F959E" stroke-width="1.5" stroke-linecap="round" stroke-linejoin="round"/>
<path d="M13.1162 5.87756C14.004 6.16115 14.6347 6.95815 14.7135 7.89588" stroke="#8F959E" stroke-width="1.5" stroke-linecap="round" stroke-linejoin="round"/>
</svg>
