<svg width="14" height="14" viewBox="0 0 14 14" fill="none" xmlns="http://www.w3.org/2000/svg">
<path d="M6.18249 0.743117H3.84562C1.92374 0.743117 0.71875 2.10374 0.71875 4.02999V9.22624C0.71875 11.1525 1.91812 12.5131 3.84562 12.5131H9.36062C11.2887 12.5131 12.4881 11.1525 12.4881 9.22624V6.70874M8.47805 1.87656L11.3318 4.73031M4.51717 5.82556L9.1878 1.15493C9.76967 0.573682 10.7128 0.573682 11.2947 1.15493L12.0553 1.91556C12.6372 2.49743 12.6372 3.44118 12.0553 4.02243L7.36217 8.71556C7.1078 8.96993 6.7628 9.11306 6.4028 9.11306H4.06155L4.1203 6.75056C4.12905 6.40306 4.27092 6.07181 4.51717 5.82556Z" stroke="#FEFEFE" stroke-width="1.2" stroke-linecap="round" stroke-linejoin="round"/>
</svg>
