<svg width="25" height="25" viewBox="0 0 25 25" fill="none" xmlns="http://www.w3.org/2000/svg">
<path fill-rule="evenodd" clip-rule="evenodd" d="M21.6734 7.94119L21.0251 6.81609C20.4766 5.86409 19.261 5.53567 18.3077 6.08192C17.854 6.34924 17.3125 6.42508 16.8027 6.29273C16.2929 6.16036 15.8568 5.83068 15.5903 5.37635C15.419 5.08758 15.3269 4.75866 15.3233 4.42288C15.3388 3.88453 15.1357 3.36284 14.7603 2.97666C14.3849 2.59049 13.8692 2.3727 13.3306 2.37292H12.0244C11.4968 2.37291 10.9908 2.58316 10.6186 2.95715C10.2464 3.33115 10.0386 3.83804 10.0411 4.36568C10.0255 5.45505 9.13787 6.32994 8.04838 6.32982C7.7126 6.32633 7.38368 6.23424 7.09491 6.06285C6.14161 5.5166 4.92603 5.84502 4.37751 6.79703L3.68148 7.94119C3.13363 8.892 3.45758 10.1068 4.40612 10.6586C5.02269 11.0145 5.40251 11.6725 5.40251 12.3843C5.40251 13.0963 5.02269 13.7541 4.40612 14.1102C3.45878 14.6582 3.13448 15.8701 3.68148 16.818L4.33938 17.9527C4.59638 18.4164 5.02759 18.7586 5.53758 18.9035C6.04757 19.0485 6.59428 18.9842 7.05677 18.725C7.51141 18.4596 8.05319 18.3869 8.56168 18.5231C9.07018 18.6591 9.50324 18.9927 9.76463 19.4495C9.93601 19.7384 10.0281 20.0672 10.0316 20.4031C10.0316 21.5036 10.9237 22.3958 12.0244 22.3958H13.3306C14.4275 22.3958 15.3181 21.5094 15.3233 20.4126C15.3208 19.8833 15.53 19.375 15.9042 19.0007C16.2784 18.6264 16.7869 18.4172 17.3161 18.4199C17.6511 18.4288 17.9786 18.5205 18.2696 18.6868C19.2204 19.2346 20.4352 18.9107 20.987 17.9621L21.6734 16.818C21.9392 16.3619 22.0122 15.8187 21.8761 15.3086C21.7401 14.7986 21.4063 14.3638 20.9488 14.1006C20.4912 13.8374 20.1576 13.4026 20.0216 12.8926C19.8855 12.3826 19.9584 11.8393 20.2242 11.3832C20.397 11.0815 20.6472 10.8314 20.9488 10.6586C21.8917 10.1071 22.2149 8.89939 21.6734 7.95073V7.94119Z" stroke="#1D1E20" stroke-width="1.5" stroke-linecap="round" stroke-linejoin="round"/>
<path d="M12.6823 15.1304C14.1989 15.1304 15.4283 13.901 15.4283 12.3844C15.4283 10.8679 14.1989 9.63843 12.6823 9.63843C11.1657 9.63843 9.93628 10.8679 9.93628 12.3844C9.93628 13.901 11.1657 15.1304 12.6823 15.1304Z" stroke="#1D1E20" stroke-width="1.5" stroke-linecap="round" stroke-linejoin="round"/>
</svg>
