<svg width="30" height="30" viewBox="0 0 30 30" fill="none" xmlns="http://www.w3.org/2000/svg">
<g clip-path="url(#clip0_206_115)">
<path d="M27.7775 19.71L27.4963 18.3038H24.3538L23.8538 19.7L21.335 19.705C22.5341 16.8215 23.7358 13.939 24.94 11.0575C25.145 10.5688 25.5088 10.32 26.045 10.3225C26.455 10.3263 27.1237 10.3263 28.0525 10.3238L30 19.7063L27.7775 19.71ZM25.0612 16.3775H27.0863L26.33 12.8525L25.0612 16.3775ZM8.825 10.3213L11.3575 10.3238L7.4425 19.7113L4.87875 19.7088C4.23406 17.2292 3.59739 14.7475 2.96875 12.2638C2.84375 11.7688 2.59625 11.4225 2.12 11.2588C1.69625 11.1125 0.99 10.8875 0 10.5813V10.325H4.04625C4.74625 10.325 5.155 10.6638 5.28625 11.3588C5.41875 12.055 5.75125 13.8275 6.28625 16.6763L8.825 10.3213ZM14.8375 10.3238L12.835 19.7088L10.425 19.7063L12.425 10.3213L14.8375 10.3238ZM19.725 10.15C20.4462 10.15 21.355 10.375 21.8775 10.5813L21.455 12.5275C20.9825 12.3375 20.205 12.0813 19.5513 12.09C18.6012 12.1063 18.0138 12.505 18.0138 12.8875C18.0138 13.51 19.0337 13.8238 20.0837 14.5038C21.2825 15.2788 21.44 15.975 21.425 16.7313C21.4087 18.3013 20.0837 19.85 17.2887 19.85C16.0138 19.8313 15.5538 19.7238 14.5138 19.355L14.9538 17.3238C16.0125 17.7675 16.4613 17.9088 17.3662 17.9088C18.195 17.9088 18.9062 17.5738 18.9125 16.99C18.9175 16.575 18.6625 16.3688 17.7325 15.8563C16.8025 15.3425 15.4975 14.6313 15.515 13.2038C15.5362 11.3763 17.2675 10.15 19.7262 10.15H19.725Z" fill="#3D93F8"/>
</g>
<defs>
<clipPath id="clip0_206_115">
<rect width="30" height="30" fill="white"/>
</clipPath>
</defs>
</svg>
