<svg width="31" height="10" viewBox="0 0 31 10" fill="none" xmlns="http://www.w3.org/2000/svg">
<path d="M28.714 9.5919L28.4302 8.18617L25.2877 8.19195L24.7902 9.58912L22.2715 9.59875C23.4653 6.71298 24.6616 3.82827 25.8606 0.944636C26.0647 0.45551 26.428 0.206092 26.9642 0.207605C27.3742 0.210601 28.043 0.20937 28.9717 0.205161L30.9365 9.58406L28.714 9.5919ZM25.9916 6.2644L28.0166 6.26068L27.2539 2.73708L25.9916 6.2644ZM9.74425 0.238036L12.2767 0.235877L8.37902 9.63056L5.81527 9.63278C5.16602 7.15437 4.52479 4.67387 3.89158 2.19131C3.76567 1.69654 3.51753 1.35074 3.04098 1.18787C2.61696 1.0424 1.9103 0.818701 0.919739 0.514273L0.919267 0.258023L4.96551 0.250579C5.66551 0.249291 6.07488 0.587288 6.20741 1.28205C6.34119 1.97805 6.67695 3.74993 7.21719 6.5977L9.74425 0.238036ZM15.7567 0.229474L13.7715 9.61814L11.3615 9.62008L13.3442 0.231413L15.7567 0.229474ZM20.6439 0.0467327C21.3652 0.0454057 22.2743 0.268734 22.7972 0.474022L22.3783 2.42105C21.9054 2.23192 21.1275 1.9771 20.4737 1.98705C19.5238 2.00505 18.937 2.40488 18.9377 2.78738C18.9388 3.40988 19.9594 3.72175 21.0107 4.39981C22.2108 5.17261 22.3696 5.86857 22.356 6.62484C22.3427 8.19487 21.0205 9.74606 18.2255 9.7512C16.9505 9.73479 16.4903 9.62814 15.4496 9.2613L15.8859 7.22925C16.9454 7.67105 17.3944 7.81147 18.2994 7.80981C19.1282 7.80828 19.8388 7.47198 19.844 6.88822C19.8482 6.47321 19.5929 6.26743 18.6619 5.75664C17.731 5.2446 16.4247 4.53575 16.4395 3.10822C16.4574 1.28069 18.1864 0.051254 20.6452 0.0467304L20.6439 0.0467327Z" fill="#FEFEFE"/>
</svg>
